<svg xmlns="http://www.w3.org/2000/svg" viewBox="0 0 64 64" id="speedometer">
  <path fill="#222" d="M32 15.21a26.031 26.031 0 0 0-26 26 25.483 25.483 0 0 0 .92 6.84.994.994 0 0 0 .96.74h48.24a.994.994 0 0 0 .96-.74 25.483 25.483 0 0 0 .92-6.84 26.031 26.031 0 0 0-26-26Zm-1 4a1 1 0 0 1 2 0v1.69a1 1 0 0 1-2 0ZM11.68 42.15 10 42.14a1 1 0 0 1 0-2l1.68.01a1 1 0 0 1 0 2Zm3.63-10.65a1.031 1.031 0 0 1-.87.49 1.009 1.009 0 0 1-.5-.13l-1.46-.85a1.016 1.016 0 0 1-.36-1.37 1 1 0 0 1 1.37-.36l1.45.85a1.01 1.01 0 0 1 .37 1.37Zm7.1-7.05a1.006 1.006 0 0 1-1.37-.38l-.83-1.46a1 1 0 0 1 1.74-.99l.83 1.46a1.01 1.01 0 0 1-.37 1.37Zm11.06 20.26a3.789 3.789 0 0 1-1.47.3 3.826 3.826 0 0 1-3.49-2.33 3.765 3.765 0 0 1 1.16-4.45l-4.95-11.77a1.008 1.008 0 0 1 .53-1.31.988.988 0 0 1 1.31.53l4.94 11.78a3.663 3.663 0 0 1 1.93.25 3.717 3.717 0 0 1 2.06 2.04 3.8 3.8 0 0 1-2.02 4.96Zm10.4-22.04-.84 1.45a1 1 0 0 1-.87.5.947.947 0 0 1-.49-.13 1 1 0 0 1-.37-1.37l.84-1.45a1 1 0 1 1 1.73 1Zm5.73 9.4a.991.991 0 0 1-.86-.5 1.007 1.007 0 0 1 .36-1.37l1.46-.84a1.01 1.01 0 0 1 1.37.37 1 1 0 0 1-.37 1.36l-1.46.84a.9.9 0 0 1-.5.14ZM54 42.24h-1.68a1 1 0 0 1 0-2H54a1 1 0 0 1 0 2Zm-20.35-1.72a1.787 1.787 0 0 1-2.33 2.35 1.757 1.757 0 0 1-.97-.96 1.783 1.783 0 0 1 2.33-2.35 1.757 1.757 0 0 1 .97.96Z"></path>
</svg>
